<svg width="100%" viewBox="0 0 241 38" fill="none" xmlns="http://www.w3.org/2000/svg" xmlns:xlink="https://www.w3.org/1999/xlink">
<rect width="241" height="38" fill="#3D4E66"/>
<g clip-path="url(#clip0)">
<path fill-rule="evenodd" clip-rule="evenodd" d="M123.546 29.2592C123.068 29.2592 122.699 28.8671 122.69 28.3476C122.691 28.3022 122.688 28.2629 122.681 28.2248L122.685 20.9231C122.685 19.8924 122.353 19.0331 121.699 18.3693C121.156 17.818 120.473 17.5147 119.722 17.4929C119.332 17.4823 118.943 17.4784 118.551 17.4784L117.012 17.4839C116.928 17.4839 116.842 17.5118 116.804 17.5282C116.641 17.5939 116.463 17.7773 116.463 18.0228V28.2854C116.463 28.7314 116.234 29.0831 115.865 29.204C115.757 29.2397 115.65 29.2576 115.547 29.2576C115.063 29.2576 114.695 28.858 114.691 28.3279C114.687 27.6118 114.688 26.6248 114.689 25.908L114.69 18.0163C114.69 17.7273 114.463 17.4927 114.184 17.4927H109.032C108.753 17.4927 108.527 17.7273 108.527 18.0163L108.526 28.2838C108.526 28.7347 108.293 29.0895 107.919 29.2102C107.818 29.2426 107.715 29.2592 107.616 29.2592C107.133 29.2592 106.763 28.8637 106.755 28.3393C106.75 28.0777 106.751 27.546 106.753 27.2839L106.754 16.6468C106.754 16.1817 107.009 15.8122 107.419 15.6832C107.493 15.6594 107.582 15.6472 107.683 15.6472C109.962 15.6456 112.239 15.6441 114.516 15.6441C116.285 15.6441 118.056 15.6454 119.825 15.6472C120.72 15.6485 121.486 15.8445 122.165 16.2472C122.752 16.5938 123.236 17.0788 123.604 17.6887C124.175 18.6366 124.455 19.7378 124.458 21.0549C124.462 23.1345 124.463 26.4479 124.461 28.5374C124.402 28.8445 124.177 29.1027 123.863 29.2056C123.757 29.2413 123.651 29.2592 123.546 29.2592ZM133.714 29.3358C130.951 29.3358 128.622 27.7672 127.485 25.1393C126.378 22.5832 127.003 19.3351 128.97 17.416C130.308 16.1102 131.87 15.4483 133.614 15.4483C134.001 15.4483 134.403 15.4809 134.81 15.5441C137.632 15.9823 139.791 18.2435 140.182 21.1712C140.212 21.3945 140.204 21.6446 140.159 21.8935C140.067 22.3965 139.852 22.5752 139.337 22.5759L129.266 22.5767C129.111 22.5767 128.967 22.6479 128.871 22.7728C128.774 22.8989 128.738 23.0602 128.773 23.2156C129.235 25.3512 130.32 26.7178 132.087 27.393C132.609 27.5924 133.147 27.6934 133.689 27.6934C134.55 27.6934 135.446 27.4354 136.352 26.9265C136.964 26.5836 137.534 26.0988 138.096 25.4449C138.261 25.254 138.502 25.1445 138.76 25.1445C138.875 25.1445 138.985 25.1662 139.087 25.2095C139.396 25.34 139.613 25.6832 139.604 26.0258C139.597 26.2423 139.513 26.4443 139.345 26.6427C138.241 27.9469 136.926 28.7847 135.436 29.1323C134.861 29.2674 134.281 29.3358 133.714 29.3358ZM133.665 17.0397C132.161 17.0397 130.983 17.5155 130.065 18.4947C129.5 19.096 129.153 19.8134 129.034 20.6258C129.011 20.7763 129.054 20.9296 129.151 21.0456C129.246 21.1614 129.386 21.2277 129.534 21.2277H137.736C137.887 21.2277 138.029 21.1591 138.125 21.0391C138.222 20.9195 138.261 20.762 138.233 20.6072C138.032 19.5016 137.545 18.6576 136.746 18.0277C135.934 17.3857 134.97 17.063 133.799 17.0408L133.665 17.0397ZM81.4635 29.3345C79.4996 29.3345 77.8024 28.5263 76.419 26.9327C75.5441 25.924 75.0171 24.7239 74.8525 23.3663C74.5508 20.8768 75.3083 18.7816 77.1033 17.1392C78.3322 16.0144 79.7991 15.4439 81.4635 15.4439C81.6506 15.4439 81.8396 15.4514 82.0309 15.4649C83.729 15.5907 85.1562 16.2586 86.2721 17.4499C87.383 18.6356 87.9768 20.0045 88.0363 21.5193C88.0515 21.8971 87.984 22.1699 87.8363 22.3289C87.684 22.4936 87.413 22.5767 87.0294 22.5767H77.1048C76.9505 22.5767 76.8068 22.6479 76.7105 22.7728C76.6142 22.8945 76.5775 23.0553 76.611 23.2125C77.0695 25.3592 78.1617 26.7305 79.9504 27.4049C80.4632 27.5975 80.993 27.6954 81.5255 27.6954C82.3871 27.6954 83.2825 27.4378 84.1863 26.9294C84.8019 26.5836 85.3725 26.0988 85.9313 25.448C86.0966 25.2553 86.3398 25.1445 86.5979 25.1445C86.7116 25.1445 86.8211 25.166 86.9229 25.2085C87.2464 25.3434 87.4652 25.6728 87.4317 25.9748C87.4045 26.2159 87.3177 26.4523 87.2054 26.5919C86.1133 27.9487 84.7849 28.8034 83.2562 29.1328C82.6379 29.2667 82.0348 29.3345 81.4635 29.3345ZM81.505 17.0086C80.7235 17.0086 79.9391 17.1912 79.1743 17.5515C77.9211 18.1427 77.145 19.1659 76.8678 20.5932C76.8373 20.7465 76.8748 20.905 76.9708 21.0277C77.0683 21.1508 77.2111 21.2204 77.3631 21.2204H85.57C85.7223 21.2204 85.8645 21.151 85.9603 21.0293C86.0558 20.9117 86.0951 20.7548 86.0671 20.5994C85.808 19.175 85.0689 18.1575 83.8703 17.5748C83.099 17.1993 82.3031 17.0086 81.505 17.0086ZM151.38 35.0487C150.309 35.0487 149.219 34.7778 148.143 34.2435C147.651 34 147.388 33.7263 147.289 33.356C147.191 32.9895 147.286 32.6422 147.536 32.4503C147.718 32.3102 147.878 32.2424 148.028 32.2424C148.126 32.2424 148.232 32.2737 148.343 32.3353C149.099 32.7556 150.013 33.1923 151.065 33.2423C151.169 33.2464 151.271 33.2493 151.371 33.2493C152.966 33.2487 154.277 32.6321 155.268 31.4159C155.714 30.8687 155.974 30.2477 156.225 29.6474C156.33 29.3941 156.43 29.154 156.543 28.9204C156.696 28.6058 156.829 28.2965 156.987 27.9252C157.084 27.697 157.181 27.4701 157.284 27.2451C157.425 26.9351 157.409 26.6243 157.238 26.3216C156.816 25.5767 156.397 24.8298 155.978 24.0827L153.198 19.1186C153.088 18.9209 152.981 18.7205 152.875 18.5198C152.645 18.087 152.385 17.5965 152.08 17.1454C151.909 16.8955 151.846 16.6049 151.902 16.327C151.956 16.0597 152.109 15.8298 152.321 15.6948C152.465 15.6042 152.633 15.556 152.806 15.556C153.182 15.556 153.536 15.771 153.73 16.1167C154.573 17.6097 155.411 19.1061 156.25 20.6017L157.792 23.3511C157.835 23.4285 157.882 23.5051 157.934 23.5904L158.03 23.7473C158.12 23.8962 158.276 23.9876 158.447 23.9913C158.625 23.9913 158.781 23.9076 158.876 23.7613C159.105 23.4137 159.242 23.0651 159.375 22.7285C159.422 22.6073 159.469 22.4892 159.519 22.3729C160.064 21.1189 160.593 19.8577 161.123 18.5962L161.781 17.0335C161.91 16.7264 162.043 16.4205 162.179 16.1165C162.344 15.75 162.672 15.5128 163.015 15.5128C163.088 15.5128 163.16 15.5231 163.228 15.5439C163.645 15.6664 163.933 16.1488 163.87 16.6194C163.848 16.7846 163.763 16.9651 163.674 17.1565C163.634 17.2384 163.6 17.3114 163.567 17.3849C162.625 19.5355 161.676 21.6801 160.726 23.8258L159.744 26.0369C159.199 27.2604 158.654 28.4843 158.117 29.7113L157.988 30.0099C157.648 30.7962 157.296 31.6091 156.785 32.289C155.946 33.4034 154.917 34.1886 153.725 34.6221C152.949 34.9052 152.16 35.0487 151.38 35.0487ZM97.7391 15.3183C93.5064 14.9837 90.002 18.6949 90.4588 23.103C90.8048 26.4466 93.4826 29.1084 96.721 29.3451C98.8545 29.5008 100.795 28.6247 102.136 27.1555C102.209 27.0749 102.338 27.1252 102.338 27.236V28.4537C102.338 28.9033 102.65 29.3135 103.082 29.3584C103.579 29.4101 103.998 29.0072 103.998 28.5029V22.5032C103.998 18.8005 101.303 15.6001 97.7391 15.3183ZM97.2086 27.6431C94.3802 27.6426 92.079 25.2595 92.079 22.3302C92.079 19.4003 94.3802 17.0172 97.2086 17.0172C100.037 17.0174 102.338 19.4006 102.338 22.3302C102.338 25.2597 100.037 27.6431 97.2086 27.6431ZM66.0953 15.3154C64.1528 15.173 62.3704 15.886 61.0545 17.1234C60.8315 17.3329 60.4764 17.1803 60.4764 16.8685V9.44643C60.4764 8.99659 60.1641 8.58662 59.7321 8.54156C59.2353 8.49002 58.816 8.89299 58.816 9.39697V22.3299C58.816 26.2073 61.8618 29.3628 65.6055 29.363H65.6057C69.6044 29.363 72.8068 25.7642 72.3525 21.5294C71.995 18.1979 69.3232 15.5521 66.0953 15.3154ZM65.606 27.6431C62.7772 27.6429 60.4764 25.2592 60.4764 22.3299C60.4764 19.4006 62.7774 17.0172 65.6057 17.0172C68.4341 17.0172 70.7351 19.4006 70.7351 22.3302C70.7351 25.26 68.4341 27.6431 65.606 27.6431ZM143.486 29.0028C142.996 29.0028 142.599 28.5918 142.599 28.0844V20.4039C142.599 17.8035 144.641 15.6884 147.152 15.6884H149.084C149.574 15.6884 149.971 16.0994 149.971 16.6067C149.971 17.1138 149.574 17.5248 149.084 17.5248H147.152C145.62 17.5248 144.372 18.8166 144.372 20.4039V28.0844C144.372 28.5918 143.976 29.0028 143.486 29.0028Z" fill="white"/>
<path fill-rule="evenodd" clip-rule="evenodd" d="M30 3C21.2 3 14 10.2991 14 19.2209C14 26.7649 19.1485 33.1478 26.0589 34.9395C27.2821 35.2566 28.4667 34.2854 28.4667 33.0052V26.8959C28.4667 25.4482 26.74 24.7233 25.731 25.7476L25.7063 25.7722C25.1661 26.3206 24.2958 26.4612 23.673 26.0116C22.8819 25.4409 22.8148 24.3075 23.4721 23.6414L23.5635 23.5488C24.5725 22.5254 23.8576 20.7755 22.4301 20.7755H18.7171C17.9525 20.7755 17.2395 20.2509 17.1129 19.4865C16.9518 18.5161 17.6948 17.6667 18.6238 17.6667H22.4304C23.858 17.6671 24.5729 15.9172 23.5635 14.8938L20.9377 12.2315C20.3971 11.6835 20.2588 10.8015 20.7023 10.1704C21.2656 9.36868 22.383 9.30066 23.04 9.9667L25.7317 12.6958C26.7412 13.7193 28.4671 12.9944 28.4671 11.5471V11.4387C28.4671 10.4967 29.3044 9.7434 30.2619 9.90674C31.0159 10.0351 31.5329 10.758 31.5329 11.5332V11.5471C31.5329 12.9944 33.2588 13.7193 34.2687 12.6958L36.8945 10.034C37.435 9.4859 38.305 9.34563 38.9274 9.79529C39.7185 10.3664 39.7852 11.4994 39.1283 12.1654L36.4365 14.8942C35.4271 15.9176 36.142 17.6675 37.5696 17.6675H37.1329C37.8895 17.6675 38.5972 18.179 38.7329 18.9334C38.9096 19.9135 38.1621 20.7759 37.2258 20.7759H37.5696C36.142 20.7759 35.4271 22.5257 36.4365 23.5492L39.3747 26.5281C39.9152 27.0762 40.0536 27.9582 39.6101 28.5893C39.0468 29.391 37.9293 29.459 37.2724 28.793L34.2683 25.7472C33.2588 24.7237 31.5329 25.4485 31.5329 26.8959V33.0052C31.5329 34.2854 32.7175 35.2566 33.9408 34.9395C40.8511 33.1485 46 26.766 46 19.2221C46 10.3003 38.8 3.00038 30 3ZM31.5201 5.88415C31.5201 6.73544 30.8396 7.4253 30 7.4253C29.1604 7.4253 28.4799 6.73544 28.4799 5.88415C28.4799 5.03287 29.1604 4.343 30 4.343C30.8396 4.343 31.5201 5.03325 31.5201 5.88415ZM44.0698 18.899C44.0698 19.7503 43.3894 20.4402 42.5497 20.4402C41.7101 20.4402 41.0297 19.7499 41.0297 18.899C41.0297 18.0477 41.7101 17.3579 42.5497 17.3579C43.3894 17.3579 44.0698 18.0477 44.0698 18.899ZM22.5783 27.619C22.5783 28.4699 21.8975 29.1602 21.0578 29.1602C20.2186 29.1598 19.5378 28.4699 19.5378 27.6186C19.5378 26.7677 20.2186 26.0775 21.0582 26.0775C21.8975 26.0779 22.5783 26.7677 22.5783 27.619Z" fill="white"/>
</g>
<rect x="173" y="6" width="65" height="27" rx="6" fill="#5ACFA3"/>
<path d="M186.621 16.62C185.981 16.62 185.515 16.74 185.221 16.98C184.941 17.2067 184.801 17.52 184.801 17.92C184.801 18.0533 184.821 18.1933 184.861 18.34C184.901 18.4867 184.975 18.6267 185.081 18.76C185.201 18.88 185.355 19 185.541 19.12C185.741 19.2267 186.001 19.3133 186.321 19.38L187.741 19.7C188.301 19.82 188.748 19.9867 189.081 20.2C189.428 20.4 189.695 20.62 189.881 20.86C190.068 21.1 190.188 21.3467 190.241 21.6C190.308 21.84 190.341 22.0667 190.341 22.28C190.341 22.6933 190.255 23.08 190.081 23.44C189.921 23.8 189.681 24.1133 189.361 24.38C189.055 24.6467 188.675 24.8533 188.221 25C187.768 25.16 187.261 25.24 186.701 25.24C185.995 25.24 185.341 25.14 184.741 24.94C184.141 24.7267 183.661 24.4933 183.301 24.24L183.661 22.94C184.141 23.38 184.675 23.7 185.261 23.9C185.848 24.1 186.375 24.2 186.841 24.2C187.508 24.2 188.015 24.04 188.361 23.72C188.708 23.3867 188.881 23.04 188.881 22.68C188.881 22.56 188.875 22.4267 188.861 22.28C188.848 22.12 188.795 21.96 188.701 21.8C188.608 21.64 188.468 21.4933 188.281 21.36C188.095 21.2133 187.828 21.1 187.481 21.02L185.561 20.54C185.121 20.4333 184.761 20.2933 184.481 20.12C184.201 19.9467 183.981 19.76 183.821 19.56C183.661 19.3467 183.548 19.1267 183.481 18.9C183.415 18.66 183.381 18.42 183.381 18.18C183.381 17.3667 183.681 16.72 184.281 16.24C184.895 15.7467 185.708 15.5 186.721 15.5C187.241 15.5 187.801 15.5733 188.401 15.72C189.001 15.8533 189.508 16.0533 189.921 16.32L189.541 17.52C189.275 17.2933 188.875 17.0867 188.341 16.9C187.821 16.7133 187.248 16.62 186.621 16.62ZM196.189 15.5C197.003 15.5 197.703 15.64 198.289 15.92C198.876 16.1867 199.356 16.5533 199.729 17.02C200.116 17.4733 200.396 18 200.569 18.6C200.756 19.1867 200.849 19.8067 200.849 20.46C200.849 21.1133 200.756 21.7333 200.569 22.32C200.396 22.8933 200.123 23.4 199.749 23.84C199.376 24.2667 198.896 24.6067 198.309 24.86C197.736 25.1133 197.056 25.24 196.269 25.24C195.456 25.24 194.749 25.1067 194.149 24.84C193.563 24.5733 193.076 24.22 192.689 23.78C192.303 23.3267 192.016 22.8067 191.829 22.22C191.643 21.6333 191.549 21.0133 191.549 20.36C191.549 19.7067 191.643 19.0867 191.829 18.5C192.016 17.9133 192.296 17.4 192.669 16.96C193.056 16.5067 193.543 16.1533 194.129 15.9C194.716 15.6333 195.403 15.5 196.189 15.5ZM196.249 24.18C196.783 24.18 197.243 24.08 197.629 23.88C198.029 23.68 198.356 23.4133 198.609 23.08C198.876 22.7333 199.069 22.34 199.189 21.9C199.309 21.4467 199.369 20.9733 199.369 20.48C199.369 19.9733 199.303 19.4867 199.169 19.02C199.049 18.5533 198.856 18.1467 198.589 17.8C198.323 17.44 197.983 17.1533 197.569 16.94C197.169 16.7267 196.689 16.62 196.129 16.62C195.583 16.62 195.116 16.72 194.729 16.92C194.343 17.12 194.023 17.3867 193.769 17.72C193.516 18.0533 193.329 18.4467 193.209 18.9C193.089 19.34 193.029 19.8067 193.029 20.3C193.029 20.8067 193.089 21.2933 193.209 21.76C193.343 22.2267 193.536 22.64 193.789 23C194.056 23.36 194.389 23.6467 194.789 23.86C195.203 24.0733 195.689 24.18 196.249 24.18ZM209.94 17.48C209.634 17.2533 209.194 17.0533 208.62 16.88C208.047 16.6933 207.474 16.6 206.9 16.6C206.314 16.6 205.814 16.7 205.4 16.9C205 17.1 204.667 17.3667 204.4 17.7C204.134 18.0333 203.94 18.42 203.82 18.86C203.7 19.2867 203.64 19.7333 203.64 20.2C203.64 20.72 203.714 21.22 203.86 21.7C204.007 22.18 204.22 22.6 204.5 22.96C204.794 23.32 205.147 23.6067 205.56 23.82C205.987 24.0333 206.48 24.14 207.04 24.14C207.574 24.14 208.12 24.0267 208.68 23.8C209.254 23.5733 209.727 23.2867 210.1 22.94L210.38 24.24C210.007 24.48 209.494 24.7067 208.84 24.92C208.2 25.1333 207.514 25.24 206.78 25.24C206.007 25.24 205.327 25.1067 204.74 24.84C204.167 24.5733 203.687 24.22 203.3 23.78C202.927 23.3267 202.64 22.8067 202.44 22.22C202.254 21.62 202.16 20.9867 202.16 20.32C202.16 19.68 202.247 19.0733 202.42 18.5C202.607 17.9133 202.894 17.4 203.28 16.96C203.667 16.5067 204.16 16.1533 204.76 15.9C205.36 15.6333 206.08 15.5 206.92 15.5C207.56 15.5 208.187 15.5733 208.8 15.72C209.414 15.8667 209.907 16.06 210.28 16.3L209.94 17.48ZM213.56 25H212.16V15.8H213.56V25ZM211.86 12.44C211.86 12.1733 211.954 11.9333 212.14 11.72C212.34 11.5067 212.58 11.4 212.86 11.4C213.127 11.4 213.367 11.5067 213.58 11.72C213.794 11.9333 213.9 12.1733 213.9 12.44C213.9 12.72 213.794 12.96 213.58 13.16C213.367 13.3467 213.127 13.44 212.86 13.44C212.58 13.44 212.34 13.3467 212.14 13.16C211.954 12.96 211.86 12.72 211.86 12.44ZM221.912 25L221.752 23.36H221.672C221.512 23.6133 221.299 23.8533 221.032 24.08C220.765 24.3067 220.465 24.5067 220.132 24.68C219.812 24.8533 219.459 24.9867 219.072 25.08C218.699 25.1867 218.325 25.24 217.952 25.24C217.072 25.24 216.412 24.9867 215.972 24.48C215.532 23.96 215.312 23.3133 215.312 22.54C215.312 21.78 215.505 21.1733 215.892 20.72C216.279 20.2667 216.752 19.9267 217.312 19.7C217.872 19.4733 218.459 19.3267 219.072 19.26C219.699 19.1933 220.245 19.16 220.712 19.16H221.612V18.92C221.612 18.4133 221.539 18.0267 221.392 17.76C221.259 17.4933 221.059 17.2667 220.792 17.08C220.565 16.9333 220.319 16.8333 220.052 16.78C219.799 16.7133 219.459 16.68 219.032 16.68C218.472 16.68 217.979 16.7533 217.552 16.9C217.125 17.0467 216.712 17.24 216.312 17.48L215.992 16.28C216.885 15.76 217.952 15.5 219.192 15.5C219.685 15.5 220.152 15.5467 220.592 15.64C221.032 15.72 221.419 15.8667 221.752 16.08C222.139 16.32 222.445 16.66 222.672 17.1C222.899 17.54 223.012 18.0867 223.012 18.74V25H221.912ZM218.372 24.06C218.919 24.06 219.499 23.8867 220.112 23.54C220.725 23.1933 221.225 22.6933 221.612 22.04V20.18H221.432C220.885 20.18 220.339 20.2 219.792 20.24C219.245 20.28 218.745 20.38 218.292 20.54C217.852 20.7 217.492 20.9333 217.212 21.24C216.932 21.5333 216.792 21.94 216.792 22.46C216.792 22.98 216.932 23.38 217.212 23.66C217.505 23.9267 217.892 24.06 218.372 24.06ZM226.953 25H225.553V10.2H226.953V25Z" fill="#FAFCFF"/>
<defs>
<clipPath id="clip0">
<rect width="169" height="38" fill="white"/>
</clipPath>
</defs>
</svg>

